<svg width="250" height="81" viewBox="0 0 250 81" fill="none" xmlns="http://www.w3.org/2000/svg">
<path d="M51.9176 -0.000274658V2.90216H6.09261L0.610107 13.5219H25.3676V66.6357H36.4301V13.5219H51.9176V16.1019H59.9876V15.8769V2.90216V-0.000274658H51.9176Z" fill="currentColor"/>
<path d="M96.8727 43.6487C96.8727 60.4483 88.6227 67.6482 76.9527 67.6482C65.2827 67.6482 57.0327 60.4483 57.0327 43.6487C57.0327 26.8491 65.2827 19.6493 76.9527 19.6493C88.6227 19.6493 96.8727 26.8491 96.8727 43.6487ZM85.1727 43.6487C85.1727 31.769 82.2327 27.4491 76.9227 27.4491C71.6127 27.4491 68.6727 31.769 68.6727 43.6487C68.6727 55.5285 71.6127 59.8484 76.9227 59.8484C82.2327 59.8484 85.1727 55.4985 85.1727 43.6487V43.6487Z" fill="currentColor"/>
<path d="M141.513 43.6487C141.513 60.4483 133.263 67.6482 121.593 67.6482C109.923 67.6482 101.673 60.4483 101.673 43.6487C101.673 26.8491 109.923 19.6493 121.593 19.6493C133.263 19.6493 141.513 26.8491 141.513 43.6487ZM129.813 43.6487C129.813 31.769 126.873 27.4491 121.563 27.4491C116.253 27.4491 113.313 31.769 113.313 43.6487C113.313 55.5285 116.253 59.8484 121.563 59.8484C126.873 59.8484 129.813 55.4985 129.813 43.6487Z" fill="currentColor"/>
<path d="M234.25 51.8685V67.0482L223.308 80.3754L223.09 51.876L207.873 20.2493H219.873L227.253 36.1489C228.003 37.8289 228.693 39.5688 229.353 41.3088C229.953 39.5088 230.613 37.9488 231.393 36.1489L238.143 20.2493H249.543L234.25 51.8685Z" fill="currentColor"/>
<path d="M159.813 58.6484V20.2493L148.713 24.9667V67.0482H177.693V58.6484H159.813Z" fill="currentColor"/>
<path d="M195.13 58.7984V20.2493L183.693 24.9667V67.0482H212.673V58.7984H195.13Z" fill="currentColor"/>
</svg>
